<svg width="30" height="31" viewBox="0 0 30 31" fill="none" xmlns="http://www.w3.org/2000/svg">
<path d="M29.586 3.69175L28.2448 5.56782L26.2329 5.91524L23.2328 5.35938L22.5269 6.33215L23.6917 8.27772L24.7153 9.80637L26.5153 10.8834L25.1741 12.1688L25.527 13.767L24.1505 16.0252L23.374 18.2835L21.7857 20.6112L19.4915 20.4375L17.7621 22.7999L19.1739 23.7727L19.668 25.5098L20.9034 26.6216L21.5387 28.5324H17.2679L16.1385 30.0263L14.6561 29.4704L13.8796 27.8723L12.1501 26.1699L8.62056 26.5868L5.44398 26.6216L2.76154 26.9342L3.14978 24.3633L5.79693 23.1821L5.47931 22.1746L4.52631 21.7924L4.17335 19.8468L2.16154 18.8741L1.17325 17.5191L0.0438156 16.3379L3.43216 17.4844L5.30283 17.137L6.50284 17.4149L6.8205 16.9285L8.19703 17.137L10.5265 16.1989L10.2442 14.3228L11.0559 13.0374H12.503L12.5737 12.4468L13.9855 12.1341L14.7267 12.3425L15.362 11.7172L14.9737 10.3622L15.4679 9.04204L16.562 8.45143L15.4679 6.99225L17.3032 7.06174L17.6209 6.26267L17.3385 5.39411L18.0444 4.45608L17.5503 3.34433L16.8797 2.4063L17.7268 1.43351L19.5974 0.981866L21.6798 0.703922L22.5269 0.321767L23.5505 0.0438232L25.2094 1.08609L26.2329 2.8232L29.586 3.69175Z" fill="#6840FF" stroke="#B5B4B4" stroke-width="0.0876317" stroke-linejoin="round"/>
</svg>
