<svg width="247" height="145" viewBox="0 0 247 145" fill="none" xmlns="http://www.w3.org/2000/svg">
<path d="M176.483 83.8843L176.721 85.7077L175.889 85.3113L176.325 87.3726L175.492 86.0645L175.175 84.7564L174.581 83.5275L173.471 82.0609L171.409 81.9419L171.766 83.0122L171.291 84.3996L170.26 83.8843L170.022 84.36L169.348 84.0825L168.476 83.8447L167.842 81.7437L166.811 79.841L166.93 78.2951L165.463 77.6212L165.82 76.7095L167.009 75.7581L165.186 74.4103L165.662 72.6662L167.604 73.7761L168.674 73.895L169.15 75.6788L171.291 76.0356L173.312 75.9959L174.66 76.432L174.026 78.5725L173.074 78.7311L172.599 80.1581L174.026 81.5059L174.145 79.841H174.739L176.483 83.8843Z" fill="#363333" stroke="#201D1D" stroke-width="0.24998" stroke-linejoin="round"/>
<path d="M30.6082 28.9036L29.6965 29.9343L29.1811 31.7181L30.0136 33.1451L28.1901 32.828L26.2081 33.6208L26.3271 34.8893L24.5036 35.1271L22.9577 34.2154L21.3721 34.9289L19.8657 34.8496L19.5486 33.1847L18.4387 32.3523L18.7162 32.0352L18.4783 31.7181L18.7162 30.9253L19.4297 30.1325L18.3198 29.0622L18.0423 28.1108L18.4783 27.5559L19.1919 28.5865L19.945 28.4279L21.5306 28.7847L24.5433 28.9433L25.455 28.309L27.7937 27.7144L29.3793 28.6261L30.6082 28.9036Z" fill="#363333" stroke="#201D1D" stroke-width="0.24998" stroke-linejoin="round"/>
<path d="M10.9467 26.0099L11.6999 25.9703L11.2639 27.0802L12.3341 28.0712L12.1359 29.2207L11.6999 29.3397L11.3431 29.5775L10.7089 30.1721L10.5503 31.5595L8.64759 30.6081L7.81516 29.5379L6.98273 28.9829L5.99173 28.0315L5.47639 27.2784L4.40613 26.0892L4.72327 25.0585L5.51607 25.6531L5.91247 25.0982L6.82416 25.0585L8.60796 25.4946L9.99536 25.4549L10.9467 26.0099Z" fill="#363333" stroke="#201D1D" stroke-width="0.24998" stroke-linejoin="round"/>
<path d="M171.806 69.2968L172.836 70.1292L173.035 71.6752L171.251 71.7545L169.388 71.5959L168.119 71.9923L165.939 71.0013L165.781 70.5256L166.811 68.6229L167.842 67.9887L169.546 68.5436L170.696 68.6229L171.806 69.2968Z" fill="#363333" stroke="#201D1D" stroke-width="0.24998" stroke-linejoin="round"/>
<path d="M18.4783 27.5559L18.0423 28.1108L18.3198 29.0622L19.4297 30.1325L18.7162 30.9253L18.4783 31.7181L18.7162 32.0352L18.4387 32.3523L17.4873 32.4316L16.8135 32.5505L16.6945 32.3523L16.9324 32.0748L17.0909 31.4406L16.8135 31.4802L16.3774 31.0045L16.0207 30.8856L15.7035 30.4892L15.3071 30.3307L14.99 29.9739L14.6333 30.1325L14.4351 30.9649L13.9594 31.1235L14.1179 30.9253L13.2855 30.4099L12.6116 30.1325L12.2549 29.7757L11.6999 29.3397L12.1359 29.2207L12.3341 28.0712L11.2639 27.0802L11.6999 25.9703L10.9467 26.0099L11.6206 25.0585L10.9467 24.345L10.3521 23.354L11.8188 22.7198L13.0873 22.8387L14.2765 23.7901L14.5936 24.6225L15.8621 25.1775L16.1396 26.2081L17.3684 26.9613L17.963 26.4063L18.4783 26.6838L18.0819 27.1198L18.4783 27.5559Z" fill="#363333" stroke="#201D1D" stroke-width="0.24998" stroke-linejoin="round"/>
<path d="M112.148 44.9182L111.513 44.8389L110.364 44.165L110.245 45.0371L108.58 45.5524L108.659 47.5741L107.629 48.3669L106.043 48.7236L105.885 49.8732L104.339 50.2299L102 49.2389L101.326 47.138L99.7403 47.0191L96.8466 44.7993L95.1421 44.5218L92.5259 43.2137L90.9799 42.9758L90.1871 43.4515L88.7601 43.3722L87.5709 44.8389L85.8267 45.3146L85.0735 43.5308L84.8357 40.8749L83.0123 40.0028L83.1708 38.2983L81.7834 38.1397L81.7438 35.9992L83.8447 36.6334L85.4699 35.8406L83.6069 34.2947L82.6555 32.8676L81.1492 33.5019L81.387 35.3649L80.3564 33.7397L81.0699 32.8676L83.2897 32.3523L84.8357 33.0658L86.7384 35.0478L87.7691 34.9289L90.1078 34.8893L89.4339 33.6208L90.9403 32.7487L92.288 31.282L95.4196 32.6298L96.1727 34.6118L97.0845 35.1271L99.2647 35.0082L100.097 35.4839L101.802 38.1001L104.616 39.8443L106.281 41.0335L108.778 42.2623L111.831 43.3722L112.148 44.9182Z" fill="#363333" stroke="#201D1D" stroke-width="0.24998" stroke-linejoin="round"/>
<path d="M119.56 37.6244L119.005 38.3776L116.627 37.9812L116.865 39.4082L119.045 39.21L121.859 40.0425L125.665 39.6461L126.894 42.0245L127.488 41.747L128.955 42.3416L129.153 43.3326L129.867 44.7596H127.726L126.22 44.5614L125.229 45.711L124.357 45.9488L123.762 46.5038L122.692 45.6713L122.335 43.5308L121.661 43.4119L121.701 42.6191L120.393 42.0641L119.719 42.9362L119.798 43.9668L119.56 44.3236L118.292 44.2839L117.935 45.4335L117.103 44.9578L115.755 45.7506L115.041 45.4731L115.557 42.8965L114.605 40.9938L112.94 40.3992L113.178 39.2893L114.922 39.4082L115.517 38.0208L115.715 36.3956L118.292 35.801L118.213 36.9902L118.728 37.6641L119.56 37.6244Z" fill="#363333" stroke="#201D1D" stroke-width="0.24998" stroke-linejoin="round"/>
<path d="M25.1775 17.6062L25.8117 17.8837L26.5253 18.5972L27.3181 19.6279L28.6658 21.1342L28.9037 22.2045L28.8244 23.2748L29.3397 24.4243L30.2911 24.9L31.2028 24.464L32.1541 24.9L32.3127 25.5739L31.401 26.0892L30.7667 25.8514L30.6082 28.9036L29.3793 28.6262L27.7937 27.7144L25.455 28.309L24.5433 28.9433L21.5306 28.7847L19.945 28.428L19.1919 28.5865L18.4783 27.5559L18.0819 27.1198L18.4783 26.6838L17.963 26.4063L17.3684 26.9613L16.1396 26.2081L15.8621 25.1775L14.5936 24.6225L14.2765 23.7901L13.0873 22.8387L14.6333 22.363L15.6639 20.6585L16.4171 18.9936L17.5666 18.4783L18.3594 17.9234L19.6279 18.2008H20.8964L21.8874 18.8351L22.5216 18.4387L23.9487 18.2008L24.3451 17.6062H25.1775Z" fill="#363333" stroke="#201D1D" stroke-width="0.24998" stroke-linejoin="round"/>
<path d="M22.7198 49.12L23.9487 49.9921L25.5739 49.8336L27.1595 49.9921V50.4678L28.2694 50.1507L28.0712 50.9038L25.0586 51.102L25.0189 50.7056L22.4027 50.1903L22.7198 49.12ZM26.3667 36.1577L25.0982 36.0785L24.0279 35.8406L21.5703 36.4749L23.1559 37.9019L22.1649 38.338H21.0153L19.7865 37.0298L19.4297 37.5848L20.0639 39.0911L21.2135 40.2803L20.4603 40.8353L21.7288 41.9848L22.8387 42.738L22.9973 44.165L21.0153 43.4912L21.7288 44.7993L20.4207 45.0371L21.4117 47.2966L20.0243 47.3362L18.2009 46.2263L17.2495 44.2047L16.7342 42.5002L15.8225 41.3506L14.6333 39.8839L14.4351 39.1704L15.3071 37.9416L15.3468 37.1091L16.0207 36.7524L15.981 36.0785L17.3288 35.8803L18.0423 35.3253L19.1522 35.3649L19.4693 34.9289L19.8657 34.8496L21.3721 34.9289L22.9577 34.2154L24.5036 35.1271L26.3271 34.8893L26.2081 33.6208L27.2784 34.2947L26.8424 35.8803L26.3667 36.1577Z" fill="#363333" stroke="#201D1D" stroke-width="0.24998" stroke-linejoin="round"/>
<path d="M82.7348 73.1815L82.8537 73.2211L82.933 73.1815L83.0915 73.459L83.0519 73.5383L83.0915 73.895V74.1725L83.0123 74.3311L82.9726 74.1725L82.7348 73.8554L82.7744 73.6968L82.6951 73.4193V73.2608L82.7348 73.1815Z" fill="#363333" stroke="#201D1D" stroke-width="0.24998" stroke-linejoin="round"/>
<path d="M63.549 31.4009L65.5707 31.9163L66.4031 32.9469L67.8302 33.5415L67.3545 33.8586L68.6626 35.246L68.4248 35.5235L67.2752 35.4046L65.6103 34.6514L65.1743 35.0875L62.3995 35.4839L60.1796 34.2154L57.9994 34.3343L58.1184 33.264L57.2859 31.5595L55.9382 30.6081L54.749 30.3307L53.8769 29.5775L54.0354 29.2604L55.8589 29.6964L58.9112 30.0928L61.9238 31.3217L62.3995 31.7973L63.549 31.4009Z" fill="#363333" stroke="#201D1D" stroke-width="0.24998" stroke-linejoin="round"/>
<path d="M90.5439 97.5997L89.6718 95.8159L87.6105 91.6141L94.0718 89.0771L95.1025 84.0032L93.9133 82.1798V81.1491L94.4286 80.1185L94.3493 79.0879L95.3007 78.5725L94.8646 78.2158V76.5509H95.9745L97.1637 78.2951L98.4719 79.2068L100.097 79.5635L101.445 79.9996L102.594 81.4663L103.268 82.2987L104.061 82.6555L104.14 83.2104L103.467 84.7167L103.189 85.4303L102.317 86.2627L101.643 88.0069L100.652 87.8483L100.256 88.4825L99.9782 89.751L100.414 91.4555L100.216 91.7727H99.225L97.9169 92.724L97.798 93.9529L97.3223 94.5078L95.9349 94.4682L95.1421 95.1024L95.2214 96.1331L94.1907 96.8466L92.9619 96.6087L91.5349 97.4808L90.5439 97.5997ZM95.4592 74.5293L94.9439 73.6572L95.4989 72.8247L95.7763 73.0229L95.6971 74.0932L95.4592 74.5293Z" fill="#363333" stroke="#201D1D" stroke-width="0.24998" stroke-linejoin="round"/>
<path d="M56.5724 58.1183L56.2156 58.5147L52.0931 59.7832L54.4715 62.3598L53.8372 62.7562L53.5597 63.6283L51.9345 63.985L51.4985 64.8967L50.666 65.6895L48.2083 65.2535L48.0894 64.8967L48.8029 60.8535L48.6444 59.8625L48.8822 59.1093L48.7237 57.5237L49.0011 56.7309L51.4985 57.7615L55.3435 55.0264L56.5724 58.1183Z" fill="#363333" stroke="#201D1D" stroke-width="0.24998" stroke-linejoin="round"/>
<path d="M10.3521 23.354L10.9467 24.345L11.6206 25.0585L10.9467 26.0099L9.99537 25.4549L8.60797 25.4946L6.82417 25.0585L5.91248 25.0982L5.51608 25.6531L4.72328 25.0585L4.40614 26.0892L5.4764 27.2784L5.99174 28.0315L6.98274 28.9829L7.81517 29.5379L8.6476 30.6081L10.5503 31.5595L10.3521 31.9559L8.37014 31.0442L7.10168 30.1325L5.19894 29.3793L3.33588 27.5559L3.73228 27.3577L2.74128 26.2874L2.62234 25.4549L1.3142 25.0585L0.759279 26.1288L0.125 25.2964V24.4243L0.164679 24.3847L1.59171 24.4639L1.9088 24.0675L2.62234 24.4639L3.41514 24.5036L3.37551 23.8297L4.04937 23.5522L4.16831 22.5612L5.71428 21.8873L6.34851 22.2045L7.93411 23.2747L9.6386 23.7504L10.3521 23.354Z" fill="#363333" stroke="#201D1D" stroke-width="0.24998" stroke-linejoin="round"/>
<path d="M16.1792 17.1305L17.3684 17.8044L17.5666 18.4783L16.4171 18.9936L15.6639 20.6585L14.6333 22.363L13.0873 22.8387L11.8188 22.7198L10.3521 23.354L9.6386 23.7504L7.93411 23.2747L6.34851 22.2045L5.71428 21.8873L5.23857 21.0549L4.92148 21.0153L5.43677 19.4297L5.00074 18.8747H6.11068L6.18994 17.8441L7.2602 18.5179L8.01337 18.7558L9.6386 18.4783L9.75754 17.963L10.5107 17.8837L11.4224 17.5269L11.6603 17.6855L12.572 17.3684L12.9684 16.7738L13.6026 16.6152L15.7828 17.3684L16.1792 17.1305Z" fill="#363333" stroke="#201D1D" stroke-width="0.24998" stroke-linejoin="round"/>
<path d="M48.7237 57.5237L48.8822 59.1093L48.6444 59.8625L47.6534 60.1796L47.693 59.5057L48.2083 59.149L47.6137 58.8715L47.8912 57.2066L48.7237 57.5237Z" fill="#363333" stroke="#201D1D" stroke-width="0.24998" stroke-linejoin="round"/>
<path d="M137.24 49.6353L135.733 51.7759L133.474 52.1723L130.105 51.5381L129.312 52.648L130.62 54.8678L131.769 56.612L133.791 57.8408L132.285 59.3075L132.681 61.1309L131.135 63.7075L130.263 66.2841L128.479 68.94L125.903 68.7418L123.96 71.4373L125.546 72.5473L126.101 74.5293L127.488 75.7977L128.202 77.9779H123.405L122.137 79.6825L120.472 79.0482L119.6 77.2248L117.658 75.2824L113.694 75.7581L110.126 75.7977L107.113 76.1545L107.549 73.2211L110.522 71.8734L110.166 70.7238L109.095 70.2878L108.699 68.0679L106.44 66.958L105.33 65.4121L104.061 64.0643L107.867 65.3724L109.967 64.976L111.315 65.2931L111.672 64.7382L113.218 64.976L115.834 63.9057L115.517 61.7652L116.429 60.2985H118.054L118.133 59.6246L119.719 59.2679L120.551 59.5057L121.265 58.7922L120.829 57.2462L121.384 55.7399L122.613 55.066L121.384 53.4011L123.445 53.4804L123.802 52.5687L123.485 51.5777L124.278 50.5074L123.723 49.2389L122.969 48.1687L123.921 47.0587L126.022 46.5434L128.36 46.2263L129.312 45.7903L130.461 45.4731L132.324 46.6623L133.474 48.6443L137.24 49.6353Z" fill="#6840FF" stroke="#201D1D" stroke-width="0.24998" stroke-linejoin="round"/>
<path d="M46.266 60.5363L47.8119 64.2625L48.0894 64.8967L47.5741 65.9274L47.2966 67.8301L46.8209 69.1779L46.3453 69.6139L45.5525 68.7815L44.4822 67.6715L42.6191 64.0247L42.4209 64.2625L43.5308 66.9184L45.0768 69.495L47.0191 73.459L47.9309 74.8464L48.7237 76.2734L50.8642 79.0879L50.4678 79.5239L50.6264 81.1888L53.3219 83.4879L53.7579 84.0032H44.9975H36.4749H27.6352L27.2388 74.6085L26.7235 65.5706L25.9307 63.5093L26.3667 61.9634L25.9703 60.8535L26.6442 59.6246L29.4983 59.585L31.6388 60.2589L33.819 61.012L34.8497 61.4084L36.4353 60.6156L37.2677 59.9021L39.1308 59.6643L40.6767 59.9814L41.3903 61.2499L41.8263 60.4174L43.5705 61.012L45.275 61.1706L46.266 60.5363Z" fill="#363333" stroke="#201D1D" stroke-width="0.24998" stroke-linejoin="round"/>
<path d="M210.534 85.1528L207.958 87.2934L206.491 89.7114L206.253 91.4952L208.354 94.1511L210.931 97.4808L213.19 99.0664L214.815 101.088L216.401 105.805L216.559 110.285L214.855 111.949L212.437 113.614L210.772 115.715L208.156 118.094L207.244 116.468L207.72 114.724L205.976 113.297L207.799 112.267L210.138 112.068L209.028 110.562L212.595 108.58L212.556 105.528L211.842 103.823L211.922 101.286L211.129 99.5025L209.186 97.7187L207.442 95.4988L205.183 92.4862L202.289 90.9402L202.765 90.0285L204.073 89.3546L202.884 87.1348H200.188L198.801 84.8357L197.215 82.814L198.285 82.1798L200.03 82.2194L202.13 81.9023L203.756 80.5546L204.985 81.5059L207.085 81.9816L206.967 83.4483L208.195 84.4789L210.534 85.1528Z" fill="#363333" stroke="#201D1D" stroke-width="0.24998" stroke-linejoin="round"/>
<path d="M60.2193 102.991L61.7652 103.03L63.7472 104.061L64.3418 104.933L65.3725 105.766L66.3635 107.232L67.1563 108.065L66.4031 109.175L65.6896 110.364L65.8878 111.077L65.9671 111.87L67.2355 111.91L67.7509 111.712L68.2662 112.187L67.7905 113.059L68.6626 114.486L69.5347 115.715L70.4067 116.627L77.8194 119.64L79.7221 119.6L73.5383 127.25L70.6446 127.369L68.6626 129.153L67.2355 129.193L66.6409 130.025H65.095L64.1833 129.153L62.122 130.223L61.4877 131.294L59.9814 131.056L59.4661 130.778L58.9508 130.858L58.2373 130.818L55.3832 128.678H53.7976L53.0444 127.845L53.0048 126.418L51.8552 125.982L50.4678 123.207L49.4372 122.613L49.0408 121.582L47.8516 120.353L46.4642 120.155L47.2173 118.728L48.4065 118.649L48.7237 117.895L48.6444 115.913V115.596L49.239 112.94L50.2696 112.227L50.4678 111.196L51.3795 109.214L52.6877 107.985L53.4805 105.448L53.7579 103.268L56.3742 103.823L56.9688 101.921L58.3958 103.07L59.6643 102.475L60.2193 102.991Z" fill="#363333" stroke="#201D1D" stroke-width="0.24998" stroke-linejoin="round"/>
<path d="M66.086 144.256L64.7779 142.155L64.6986 132.879L66.6409 130.025L67.2355 129.193L68.6626 129.153L70.6446 127.369L73.5383 127.25L79.7221 119.6L77.8194 119.64L70.4067 116.627L69.5347 115.715L68.6626 114.486L67.7905 113.059L68.2662 112.187L69.0193 110.8L69.7725 111.276L70.2482 112.346L71.3185 113.416H72.4284L74.4897 112.742L76.9077 112.465L78.8501 111.672L79.96 111.513L80.7528 111.038L82.0213 110.958L82.7348 110.879L83.7258 110.522L84.915 110.245L85.906 109.373H86.7781L86.8573 110.086L86.6988 111.553L86.7781 112.901L86.342 113.813L85.7871 116.587L84.8357 119.402L83.5276 122.652L81.7041 126.378L79.8411 129.232L77.2248 132.721L75.005 134.782L71.6752 137.319L69.5743 139.222L67.1166 142.314L66.6013 143.661L66.086 144.256Z" fill="#363333" stroke="#201D1D" stroke-width="0.24998" stroke-linejoin="round"/>
<path d="M68.7815 107.668L68.1076 108.303L67.1563 108.065L66.3635 107.232L65.3725 105.766L64.3418 104.933L63.7472 104.061L61.7652 103.03L60.2193 102.991L59.6643 102.475L58.3958 103.07L56.9688 101.921L56.3742 103.823L53.7579 103.268L53.4805 102.277L54.2733 98.5115L54.3922 96.8466L55.0661 96.0538L56.6517 95.6178L57.7219 94.1907L59.149 97.1241L59.9021 99.4628L61.1706 100.692L64.3418 103.11L65.6499 104.537L66.9184 106.043L67.6319 106.915L68.7815 107.668Z" fill="#363333" stroke="#201D1D" stroke-width="0.24998" stroke-linejoin="round"/>
<path d="M13.9594 31.1235L13.6423 31.6784L13.0873 31.9163L12.9287 31.4406L12.1756 32.6694L12.3738 33.5019L11.9377 33.3037L11.2639 32.4712L10.3521 31.9559L10.5503 31.5595L10.7089 30.1721L11.3431 29.5775L11.6999 29.3397L12.2549 29.7757L12.6116 30.1325L13.2855 30.41L14.1179 30.9253L13.9594 31.1235Z" fill="#363333" stroke="#201D1D" stroke-width="0.24998" stroke-linejoin="round"/>
<path d="M29.3397 24.4243L28.8244 23.2747L28.9037 22.2045L28.6658 21.1342L27.3181 19.6279L26.5253 18.5972L25.8118 17.8837L25.1775 17.6062L25.6136 17.2495L26.882 17.0116L28.4676 17.7648L29.2604 17.8837L30.2911 18.5576L30.2514 19.39L31.0442 19.7864L31.4803 20.8171L32.2731 21.4513L32.1938 21.8477L32.5902 22.0855L32.0749 22.2837L30.8857 22.2045L30.6478 21.8477L30.2514 22.0459L30.4893 22.4819L30.0532 23.3144L29.8154 24.1468L29.3397 24.4243Z" fill="#363333" stroke="#201D1D" stroke-width="0.24998" stroke-linejoin="round"/>
<path d="M117.856 32.5109L118.53 32.7487L117.341 34.3739L119.164 35.3253L120.432 34.6911L123.287 36.0388L121.186 37.8623L119.56 37.6244L118.728 37.6641L118.213 36.9902L118.292 35.801L115.715 36.3956L115.517 38.0208L114.922 39.4082L113.178 39.2893L112.94 40.3992L114.605 40.9938L115.557 42.8965L115.041 45.4731L113.337 44.9182H112.148L111.831 43.3722L108.778 42.2623L106.281 41.0335L104.616 39.8443L101.802 38.1001L100.097 35.4839L99.2647 35.0082L97.0845 35.1271L96.1727 34.6118L95.4196 32.6298L92.288 31.282L90.9403 32.7487L89.4339 33.6208L90.1078 34.8893L87.7691 34.9289L85.3114 25.6531L90.0682 24.1865L90.5042 24.3847L94.1511 26.1685L96.0538 27.1198L98.6701 29.3793L100.93 29.0225L104.339 28.8243L107.351 30.6478L107.946 33.1847L108.976 33.2244L109.967 35.2857L112.623 35.3649L113.535 36.5541H114.328L114.685 34.7307L116.825 32.9865L117.856 32.5109Z" fill="#363333" stroke="#201D1D" stroke-width="0.24998" stroke-linejoin="round"/>
<path d="M195.431 85.4303L193.806 87.0951L193.489 88.0069L192.3 88.6015L191.19 89.7114L189.644 89.8303L189.049 92.5655L188.177 93.0411L189.565 95.261L191.19 97.1241L192.339 98.8286L191.784 101.009L191.071 101.484L191.784 102.753L193.489 104.775L193.885 106.202L193.965 107.391L195.035 109.73L194.004 112.108L193.132 114.724L192.775 112.821L193.291 110.879L192.419 109.373L192.339 106.598L191.309 105.25L190.238 102.238L189.446 99.0268L188.217 96.8862L186.948 98.1943L184.649 99.9781L183.341 99.7799L181.914 99.1853L182.271 96.0141L181.478 93.6357L179.377 90.7024L179.496 89.7907L178.148 89.4339L176.325 87.3726L175.889 85.3113L176.721 85.7077L176.483 83.8843L177.474 83.2897L177.078 82.2194L177.474 81.3473L177.118 78.6915L178.941 79.2861L179.575 77.1851L179.456 75.9563L180.249 73.8157L179.892 72.3491L182.35 70.6049L184.015 71.0409L183.46 69.495L184.134 69.0193L183.738 68.0679L184.966 67.8697L186.037 69.3761L187.107 69.9707L187.622 71.913L187.979 74.0139L186.314 76.1545L186.592 79.1671L188.811 78.7311L189.763 81.0699L191.229 81.5852L190.912 83.6861L192.696 84.6375L193.727 85.1131L195.233 84.36L195.431 85.4303Z" fill="#363333" stroke="#201D1D" stroke-width="0.24998" stroke-linejoin="round"/>
<path d="M174.739 13.008L176.325 12.5323L178.584 12.2152L180.725 12.5719L183.341 13.7215L185.283 14.99H187.107L189.802 15.3864L191.229 14.7521L193.568 14.3557L195.312 12.6116L196.66 12.8891L198.206 13.7215L200.426 13.4837L200.664 15.3467L200.783 17.8441L201.893 18.8351L202.804 18.5179L204.985 18.9143L205.976 18.0026L208.037 18.7954L210.891 20.5396L211.208 21.4117L209.464 21.1342L206.768 21.4513L205.777 22.1648L205.262 23.8297L202.725 24.7811L201.457 26.1288L199.118 25.6135L197.849 25.3757L197.651 27.0009L198.801 27.9523L199.554 28.7847L198.603 29.6568L197.81 31.0045L195.867 31.8766L192.855 31.9559L190.001 32.828L188.256 34.1757L186.948 33.4226H184.491L180.765 31.8766L178.545 31.5199L176.008 31.8766L171.528 31.282L169.309 31.3613L167.445 29.855L165.463 27.5559L164.116 27.2784L160.945 25.6928L158.09 25.3757L155.514 24.9396L154.325 23.8297L153.77 20.936L151.471 18.9143L148.22 18.0026L145.961 16.6945L144.652 14.9503L146.516 14.5143L149.171 12.4134L151.51 11.2638L153.611 12.017L155.672 12.0566L157.575 13.2062L159.557 13.2855L162.728 13.9197L163.68 12.1755L162.094 10.7485L162.609 8.21154L165.384 9.20254L167.287 9.51967L169.943 10.1539L171.37 11.9773L174.739 13.008Z" fill="#363333" stroke="#201D1D" stroke-width="0.24998" stroke-linejoin="round"/>
<path d="M19.8657 34.8496L19.4693 34.9289L19.1522 35.365L18.0423 35.3253L17.3288 35.8803L15.981 36.0785L15.0693 35.4839L14.6729 34.4136L14.8711 33.5415L15.1486 33.5812L15.1882 33.0658L16.3378 32.6694L16.8135 32.5505L17.4873 32.4316L18.4387 32.3523L19.5486 33.1848L19.8657 34.8496Z" fill="#363333" stroke="#201D1D" stroke-width="0.24998" stroke-linejoin="round"/>
<path d="M49.0408 55.3039L49.1993 56.3345L48.9615 56.7309H49.0011L48.7237 57.5237L47.8912 57.2066L47.6137 58.8715L48.2083 59.1489L47.693 59.5057L47.6534 60.1796L48.6444 59.8625L48.8029 60.8535L48.0894 64.8967L47.8119 64.2625L46.266 60.5363L46.8209 59.7039L46.6624 59.5453L47.0984 58.3561L47.3363 56.4534L47.5741 55.7795H47.6137H48.3273L48.4858 55.3435L49.0408 55.3039Z" fill="#363333" stroke="#201D1D" stroke-width="0.24998" stroke-linejoin="round"/>
<path d="M163.957 69.0589L164.036 70.1292L164.631 71.7545L164.591 72.7455L162.768 72.7851L160.033 72.1905L158.328 71.9527L156.822 70.6842L153.77 70.3274L150.678 68.9004L148.379 67.6715L146.079 66.7202L146.436 64.3418L147.546 63.1526L148.299 62.558L150.202 63.3508L152.739 65.0157L154.047 65.3724L155.038 66.6013L156.822 67.0769L158.804 68.2265L161.381 68.7815L163.957 69.0589Z" fill="#363333" stroke="#201D1D" stroke-width="0.24998" stroke-linejoin="round"/>
<path d="M16.8135 32.5505L16.3378 32.6694L15.1882 33.0658L15.1486 33.5811L14.8711 33.5415L14.6333 32.6298L14.1179 32.3523L13.6423 31.6784L13.9594 31.1235L14.4351 30.9649L14.6333 30.1325L14.99 29.9739L15.3071 30.3307L15.7035 30.4892L16.0207 30.8856L16.3774 31.0045L16.8135 31.4802L17.0909 31.4406L16.9324 32.0748L16.6945 32.3523L16.8135 32.5505Z" fill="#363333" stroke="#201D1D" stroke-width="0.24998" stroke-linejoin="round"/>
<path d="M216.758 92.4466L215.053 93.6754L213.111 92.8826L212.714 90.7024L213.586 89.5528L215.886 88.8393L217.194 88.879L217.828 89.87L217.035 90.9799L216.758 92.4466ZM226.033 14.5936L229.601 16.3774L231.979 18.6765H234.992L236.023 17.7251L238.758 16.972L239.273 19.2315L239.154 20.1432L240.264 22.8387L240.502 25.2964L237.767 24.8603L236.617 25.7324L238.48 27.873L240.026 30.846L239.035 30.8856L239.788 32.1937L237.608 30.6874V32.1145L235.071 33.1847L236.181 34.5325L234.358 34.4136L232.931 33.6208L232.495 35.4442L230.949 36.792L230.116 38.4172L227.619 39.1307L226.668 40.3199L224.765 41.0335L225.28 39.8443L224.369 38.8533L225.161 37.1487L223.378 35.8406L222.03 36.7127L220.603 38.4965L220.087 40.1217L218.105 40.2407L217.59 41.4299L219.493 43.1344L221.396 43.5704L221.95 44.6804L223.972 45.4335L225.478 43.6101L227.817 44.6011L229.205 44.6804L230.116 45.9885L227.46 46.702L227.064 48.0894L225.558 49.3579L225.201 51.1417L228.015 52.5291L229.839 55.0264L232.019 57.3652L234.199 59.3075L234.833 61.2102L233.724 61.9238L234.675 63.2715L236.221 64.0643L236.538 66.1256L236.578 68.1472L235.468 68.3851L234.635 71.1202L233.724 74.4896L232.376 77.5023L229.839 79.841L227.223 82.0212L224.805 82.2987L223.655 83.4086L222.743 82.6158L221.752 83.8447L218.898 85.1528L216.599 85.5096L216.322 88.2051L215.093 88.3636L214.221 86.5006L214.577 85.5492L211.486 84.7168L210.534 85.1528L208.195 84.4789L206.967 83.4483L207.085 81.9816L204.985 81.5059L203.756 80.5546L202.13 81.9023L200.03 82.2194L198.285 82.1798L197.215 82.814L196.145 83.1708L196.938 86.1042L195.748 86.0249L195.431 85.4303L195.233 84.36L193.727 85.1132L192.696 84.6375L190.912 83.6861L191.229 81.5852L189.763 81.0699L188.811 78.7311L186.592 79.1672L186.314 76.1545L187.979 74.014L187.622 71.913L187.107 69.9707L186.037 69.3761L184.966 67.8698L183.738 68.068L181.319 67.6716L181.795 66.6013L180.368 65.0157L179.1 66.086L177.157 65.4914L175.017 67.077L173.471 68.9797L171.806 69.2968L170.696 68.6229L169.546 68.5436L167.842 67.9887L166.811 68.6229L165.781 70.5256L165.186 68.504L163.957 69.059L161.381 68.7815L158.804 68.2265L156.822 67.077L155.038 66.6013L154.047 65.3724L152.739 65.0157L150.202 63.3508L148.299 62.558L147.546 63.1526L144.137 61.3688L141.679 59.7832L140.411 56.9688L142.036 57.3255L141.798 56.0174L140.609 54.7093L140.292 52.648L137.24 49.6354L133.474 48.6444L132.324 46.6624L130.461 45.4732L129.867 44.7596L129.153 43.3326L128.955 42.3416L127.488 41.747L126.894 42.0245L125.665 39.6461L126.101 39.0911L125.625 38.4965L127.251 37.3073L128.519 36.792L130.818 37.1487L131.056 35.5235L133.593 35.246L133.989 34.2154L136.724 32.8676L136.804 32.3127L136.13 30.846L137.279 30.2117L133.791 25.8513L137.398 24.8603L138.191 24.3054L137.795 19.8261L142.076 20.6585L142.71 19.5089L141.719 17.0513L143.225 16.8134L143.979 15.1485L144.652 14.9503L145.961 16.6945L148.22 18.0026L151.471 18.9143L153.77 20.936L154.325 23.8297L155.514 24.9396L158.09 25.3757L160.945 25.6928L164.116 27.2784L165.463 27.5559L167.445 29.855L169.309 31.3613L171.528 31.282L176.008 31.8766L178.545 31.5199L180.765 31.8766L184.491 33.4226H186.948L188.256 34.1757L190.001 32.828L192.855 31.9559L195.867 31.8766L197.81 31.0045L198.603 29.6568L199.554 28.7847L198.801 27.9523L197.651 27.0009L197.849 25.3757L199.118 25.6135L201.457 26.1288L202.725 24.7811L205.262 23.8297L205.777 22.1648L206.768 21.4513L209.464 21.1342L211.208 21.4117L210.891 20.5396L208.037 18.7954L205.976 18.0026L204.985 18.9143L202.804 18.5179L201.893 18.8351L200.783 17.8441L200.664 15.3467L200.426 13.4837L203.359 14.435L205.103 12.8891L204.35 11.7791L204.271 9.20255L204.786 8.40975L203.795 7.06199L202.329 6.50703L203.003 5.27819L205.024 4.84215L207.482 4.76287L210.891 5.51603L213.269 6.38811L216.322 8.84579L217.828 9.91607L219.612 11.4224L222.069 13.8008L226.033 14.5936Z" fill="#363333" stroke="#201D1D" stroke-width="0.24998" stroke-linejoin="round"/>
<path d="M26.1289 118.054L27.6748 119.045L28.9037 120.076L28.9433 120.908L30.4893 122.216L31.4406 123.326L31.9956 124.832L33.7001 125.863L34.0569 126.656L33.3433 126.933L31.8767 126.894L30.2118 126.616L29.3793 126.814L29.0226 127.449L28.3091 127.528L27.437 126.973L24.9397 128.241L23.909 128.004L23.5919 128.202L22.9577 129.748L21.2531 129.232L19.6279 128.995L18.2009 128.043L16.3378 127.171L15.1486 128.004L14.2765 129.272L14.0783 131.056L12.6513 130.937L11.1053 130.501L9.79716 131.849L8.60796 134.227L8.37013 133.474L8.25119 132.324L7.22056 131.492L6.38813 130.184L6.18993 129.272L5.11967 127.924L5.31787 127.171L5.07999 126.101L5.23856 124.119L5.79353 123.683L6.90347 121.106L8.7269 120.908L9.1233 120.234L9.5197 120.313L10.0747 120.868L12.8891 119.917L13.8405 118.926L14.99 118.014L14.7522 117.142L15.3864 116.904L17.5666 117.063L19.6279 115.874L21.2135 113.099L22.3234 112.068L23.7505 111.632L24.0279 112.703L25.3361 114.288V115.358L25.0189 116.389L25.1775 117.182L25.9307 117.935L26.1289 118.054Z" fill="#363333" stroke="#201D1D" stroke-width="0.24998" stroke-linejoin="round"/>
<path d="M44.72 50.7453L44.7597 50.8246L44.8786 50.9831L44.72 50.9435H44.6011L44.4425 51.0228L44.3236 50.9038V50.7849L44.4425 50.7453L44.5218 50.7849L44.72 50.7453ZM44.0461 50.9435V50.9831L43.9669 51.0624L43.9272 51.3002L43.8876 51.3795H43.7687L43.6894 51.4588L43.4912 51.5381L43.4119 51.5777L43.1741 51.6966L43.0155 51.657L42.8173 51.6966L42.6984 51.8552L42.6191 51.7363L42.5002 51.7759H42.4209L42.302 51.657L42.1434 51.7759H41.9452L41.747 51.6966L41.5488 51.657L41.3903 51.5381L41.2713 51.3002L41.1524 51.1813L41.0731 50.9038L40.9939 50.7849L41.0335 50.666L41.2317 50.7849L41.3903 50.7453L41.4695 50.6264L41.5092 50.5074L41.6281 50.4678L41.7074 50.5074L41.7867 50.4282H41.8659L41.9056 50.5867L42.1038 50.666L42.1434 50.7453H42.3813L42.6191 50.5471L42.7777 50.5867L42.8966 50.5074L43.0155 50.5471L43.1741 50.6264L43.2533 50.5074H43.3723L43.4912 50.666V50.9038L43.6101 50.8246L43.729 50.9038L43.7687 50.8642L44.0461 50.9435Z" fill="#363333" stroke="#201D1D" stroke-width="0.24998" stroke-linejoin="round"/>
<path d="M55.3435 55.0264L51.4985 57.7615L49.0011 56.7309H48.9615L49.1993 56.3345L49.0408 55.3039L49.3975 53.9165L50.4678 52.9255L49.9921 51.9345L49.0011 51.8155L48.5651 49.8732L48.9615 48.8029L49.4768 48.2479L49.9525 47.693L49.8732 46.3056L50.6264 46.7813L52.8462 46.0677L54.0354 46.5434H55.7796L58.0391 45.5921L59.1886 45.6317L61.5274 45.2353L60.6949 46.8209L59.6247 47.4551L60.1003 49.3182L59.7039 52.3705L55.3435 55.0264Z" fill="#363333" stroke="#201D1D" stroke-width="0.24998" stroke-linejoin="round"/>
<path d="M136.804 32.3127L136.724 32.8676L133.989 34.2154L133.593 35.246L131.056 35.5235L130.818 37.1487L128.519 36.792L127.251 37.3073L125.625 38.4965L126.101 39.0911L125.665 39.6461L121.859 40.0425L119.045 39.21L116.865 39.4082L116.627 37.9812L119.005 38.3776L119.56 37.6244L121.186 37.8623L123.287 36.0388L120.432 34.6911L119.164 35.3253L117.341 34.3739L118.53 32.7487L117.856 32.5109L117.975 31.4009L119.204 31.0442L122.85 31.9163L122.652 30.4496L123.643 29.8946L126.894 30.9649L127.528 30.6874L130.937 30.7667L134.069 31.0045L135.416 31.9163L136.804 32.3127Z" fill="#363333" stroke="#201D1D" stroke-width="0.24998" stroke-linejoin="round"/>
<path d="M48.6444 115.913L48.7237 117.895L48.4065 118.649L47.2173 118.728L46.4642 120.155L47.8516 120.353L49.0408 121.582L49.4372 122.613L50.4678 123.207L51.8552 125.982L50.3489 127.647L49.0011 129.153L47.6137 130.342H46.0281L44.2443 130.937L42.8173 130.342L41.9056 131.056L39.8839 129.351L39.329 128.281L38.1001 128.796L37.0695 128.638L36.4749 129.074L35.4443 128.757L34.0569 126.656L33.7001 125.863L31.9956 124.832L31.4406 123.326L30.4893 122.216L28.9433 120.908L28.9037 120.076L27.6748 119.045L26.1289 118.054L26.8027 117.777L27.5955 117.301L28.1109 115.002L28.7055 113.852L30.3307 113.495L30.7271 114.169L31.8767 115.676L32.5109 115.874L33.3037 115.438L34.9289 115.557L35.2461 116.072H37.4659L37.5452 115.557L38.6947 115.041L38.8929 114.328L39.7254 113.813L41.6281 115.279L42.7777 115.002L43.8479 113.178L45.0371 111.791L44.8389 110.245L44.2443 109.531L45.5921 109.373L45.7507 108.818L46.7813 108.976L46.5435 110.879L46.9002 112.703L48.0498 113.694L48.3669 114.566L48.3273 115.834L48.6444 115.913Z" fill="#363333" stroke="#201D1D" stroke-width="0.24998" stroke-linejoin="round"/>
<path d="M211.842 103.823L212.556 105.528L212.595 108.58L209.028 110.562L210.138 112.068L207.799 112.267L205.976 113.297L204.073 112.94L203.042 111.593L201.655 108.976L200.822 105.885L202.051 103.784L204.866 103.308L206.967 103.665L208.949 104.656L209.741 102.912L211.842 103.823Z" fill="#363333" stroke="#201D1D" stroke-width="0.24998" stroke-linejoin="round"/>
<path d="M236.855 43.9272V43.6893L237.846 43.7686L238.084 42.6587L239.511 42.5001L240.304 42.3416V41.747L243.594 44.72L244.902 46.3849L246.25 49.3182L246.052 50.7056L244.347 51.1813L243.118 52.2516L241.295 52.4498L240.462 51.0624L240.026 49.1597L237.925 46.5434L239.273 46.1074L236.855 43.9272Z" fill="#363333" stroke="#201D1D" stroke-width="0.24998" stroke-linejoin="round"/>
<path d="M239.788 32.1938L240.343 32.6298L239.471 32.4712L239.075 33.3433L238.956 34.1758L240.066 35.9992L239.313 36.5542L239.194 36.9902L238.837 37.7434L237.688 38.1794L237.133 38.8533L237.648 39.9236L237.529 40.201L238.56 40.6371L240.304 41.747V42.3416L239.511 42.5002L238.084 42.6587L237.846 43.7686L236.855 43.6894V43.9272L235.587 43.4515L235.547 43.9272L235.032 44.1254L234.754 43.6497L234.08 43.4119L233.327 43.0155L233.367 41.9056L233.724 41.5884L233.327 41.1524L233.169 39.765L232.812 39.3686L231.464 39.0911L230.116 38.4172L230.949 36.792L232.495 35.4442L232.931 33.6208L234.358 34.4136L236.181 34.5325L235.071 33.1848L237.608 32.1145V30.6874L239.788 32.1938Z" fill="#363333" stroke="#201D1D" stroke-width="0.24998" stroke-linejoin="round"/>
<path d="M76.1545 63.7075L76.7491 64.8175L76.6302 65.4121L77.5816 67.3148L76.0356 67.3941L75.3617 66.1652L73.3797 65.9274L74.6879 63.4697L76.1545 63.7075Z" fill="#363333" stroke="#201D1D" stroke-width="0.24998" stroke-linejoin="round"/>
<path d="M112.148 4.68359L113.892 4.56467L117.539 2.26555L117.222 3.05835L120.551 4.92143L127.805 11.1053L128.242 9.83679L131.571 11.2242L134.029 10.59L135.337 11.026L136.962 12.453L138.548 12.9287L139.856 13.999L142.234 13.6422L143.979 15.1486L143.225 16.8134L141.719 17.0513L142.71 19.509L142.076 20.6585L137.795 19.8261L138.191 24.3054L137.398 24.8604L133.791 25.8514L137.279 30.2118L136.13 30.846L136.804 32.3127L135.416 31.9163L134.069 31.0046L130.937 30.7667L127.528 30.6874L126.894 30.9649L123.643 29.8946L122.652 30.4496L122.85 31.9163L119.204 31.0442L117.975 31.401L117.856 32.5109L116.825 32.9866L114.685 34.7307L114.328 36.5542H113.535L112.623 35.365L109.967 35.2857L108.976 33.2244L107.946 33.1848L107.351 30.6478L104.339 28.8244L100.93 29.0226L98.6701 29.3793L96.0538 27.1198L94.1511 26.1685L90.5042 24.3847L90.0682 24.1865L85.3114 25.6532L87.7691 34.9289L86.7384 35.0478L84.8357 33.0658L83.2897 32.3523L81.0699 32.8676L80.3564 33.7397L80.1185 33.1055L80.3564 32.0748L79.7618 31.2028L77.1852 30.3307L75.7185 28.0712L74.45 27.437L74.2122 26.6045L76.2338 26.8424L75.8374 25.0189L77.4627 24.6225L79.3257 24.9793L79.0483 22.5612L78.2951 21.0153L76.3131 21.1342L74.45 20.5396L72.4284 21.6099L70.6842 22.1648L69.5743 21.7288L69.495 20.4603L67.7905 18.7954L66.3635 18.8747L64.2625 17.2098L64.9364 15.3071L64.2229 14.8314L65.095 12.0963L67.4734 13.5233L67.2355 11.7395L70.4464 9.08363L73.459 9.00435L78.2158 10.7089L80.8321 11.6999L82.5762 10.6692L85.6285 10.6296L88.5222 11.8981L88.8393 11.1449L91.6141 11.2638L91.6934 10.1143L87.9673 8.40975L89.3547 7.22055L88.7601 6.58631L90.3457 5.95207L88.324 4.28719L88.879 3.45475L95.6178 2.62231L96.2917 2.02771L100.612 1.11599L101.841 0.124992L105.449 0.640314L107.193 3.13763L108.897 2.54303L111.712 3.37547L112.148 4.68359Z" fill="#363333" stroke="#201D1D" stroke-width="0.24998" stroke-linejoin="round"/>
<path d="M73.3798 65.9274L75.3618 66.1652L76.0356 67.3941L77.5816 67.3148L78.6519 69.5346L79.8014 70.0896L80.2771 71.0013L81.8627 72.0716L82.1402 73.1022L81.9816 73.9743L82.3384 74.8067L83.0519 75.5203L83.4087 76.3527L83.8051 76.9869L84.5186 77.5023L85.1132 77.3041L85.6285 78.2951L85.7474 78.85L86.8177 81.4663L93.5169 82.7347L93.9133 82.1798L95.1025 84.0032L94.0718 89.0771L87.6105 91.6141L81.3078 92.6051L79.3258 93.7547L77.9384 96.4105L76.9077 96.8466L76.3131 96.0141L75.4807 96.1331L73.3005 95.8556L72.8644 95.6177L70.3275 95.6574L69.7329 95.8952L68.7815 95.261L68.2662 96.4898L68.5833 97.5601L67.632 98.3925L67.2752 97.2826L66.5617 96.5295L66.3635 95.4988L65.1346 94.5871L63.8265 92.4465L63.0734 90.3853L61.4481 88.6411L60.4571 88.2051L58.8319 85.787L58.4751 84.0429V82.5365L57.0481 79.6825L55.9382 78.6915L54.749 78.1761L53.9165 76.7095L53.9958 76.1545L53.2823 74.8067L52.6084 74.2518L51.6174 72.3491L50.1111 70.3274L48.8822 68.5833H47.812L48.0102 67.1959L48.0498 66.2841L48.2084 65.2535L50.666 65.6895L51.4985 64.8967L51.9345 63.985L53.5598 63.6283L53.8372 62.7562L54.4715 62.3598L52.0931 59.7832L56.2156 58.5147L56.5724 58.1183L59.2679 58.8318L62.677 60.6156L69.3365 65.7292L73.3798 65.9274Z" fill="#363333" stroke="#201D1D" stroke-width="0.24998" stroke-linejoin="round"/>
<path d="M53.7579 103.268L53.4805 105.448L52.6877 107.985L51.3795 109.214L50.4678 111.196L50.2696 112.227L49.239 112.94L48.6444 115.596V115.913L48.3273 115.834L48.3669 114.566L48.0498 113.694L46.9002 112.703L46.5435 110.879L46.7813 108.976L45.7507 108.818L45.5921 109.373L44.2443 109.531L44.8389 110.245L45.0371 111.791L43.8479 113.178L42.7777 115.002L41.6281 115.279L39.7254 113.813L38.8929 114.328L38.6947 115.041L37.5452 115.557L37.4659 116.072H35.2461L34.9289 115.557L33.3037 115.438L32.5109 115.874L31.8767 115.676L30.7271 114.169L30.3307 113.495L28.7055 113.852L28.1109 115.002L27.5955 117.301L26.8027 117.777L26.1289 118.054L25.9307 117.935L25.1775 117.182L25.0189 116.389L25.3361 115.358V114.288L24.0279 112.703L23.7505 111.632V110.998L22.918 110.245L22.8784 108.778L22.3631 107.787L21.6099 107.946L21.8081 106.994L22.3631 105.964L22.0856 104.894L22.7991 104.101L22.3234 103.506L22.8387 101.96L23.8297 100.057L25.7325 100.256L25.2964 90.1474V89.0772H27.8334L27.6352 84.0032H36.4749H44.9975H53.7579L54.5904 86.5006L54.1147 86.9366L54.5904 89.5925L55.5814 92.6051L56.4535 93.2394L57.7219 94.1907L56.6517 95.6178L55.0661 96.0538L54.3922 96.8466L54.2733 98.5115L53.4805 102.277L53.7579 103.268Z" fill="#363333" stroke="#201D1D" stroke-width="0.24998" stroke-linejoin="round"/>
<path d="M69.0193 110.8L68.2662 112.187L67.7509 111.712L67.2355 111.91L65.9671 111.87L65.8878 111.077L65.6896 110.364L66.4031 109.175L67.1563 108.065L68.1076 108.303L68.7815 107.668L69.3365 108.461L69.2968 109.492L68.068 110.126L69.0193 110.8Z" fill="#363333" stroke="#201D1D" stroke-width="0.24998" stroke-linejoin="round"/>
<path d="M90.5439 97.5998L88.9583 98.2736L88.6015 99.4232V100.295L86.4609 101.366L82.9726 102.555L81.1095 104.339L80.1185 104.497L79.4447 104.339L78.1762 105.409L76.7888 105.885L74.9257 106.003L74.3707 106.162L73.9347 106.836L73.3401 107.034L73.023 107.668L71.9131 107.589L71.2392 107.946L69.6536 107.827L69.0193 106.321V104.933L68.6229 104.18L68.1076 102.317L67.3941 101.286L67.8301 101.128L67.5527 99.9782L67.7905 99.5025L67.6319 98.3926L68.5833 97.5601L68.2662 96.4898L68.7815 95.261L69.7329 95.8952L70.3275 95.6574L72.8644 95.6178L73.3005 95.8556L75.4807 96.1331L76.3131 96.0142L76.9077 96.8466L77.9383 96.4106L79.3257 93.7547L81.3077 92.6051L87.6105 91.6141L89.6718 95.816L90.5439 97.5998Z" fill="#363333" stroke="#201D1D" stroke-width="0.24998" stroke-linejoin="round"/>
<path d="M49.0408 55.3039L48.4858 55.3435L48.3273 55.7795H47.6137L48.1291 53.6786L49.0011 51.8948V51.8155L49.9921 51.9345L50.4678 52.9255L49.3975 53.9165L49.0408 55.3039Z" fill="#363333" stroke="#201D1D" stroke-width="0.24998" stroke-linejoin="round"/>
<path d="M211.842 103.823L209.741 102.912L208.949 104.656L206.967 103.665L207.561 102.515L207.403 100.375L205.302 98.1547L204.786 95.6177L202.804 93.5565L201.1 93.3979L200.783 94.27L199.514 94.3493L198.761 93.9132L196.66 95.4195L196.264 93.1204L196.422 90.4645L194.916 90.3456L194.559 88.7997L193.489 88.0069L193.806 87.0951L195.431 85.4303L195.748 86.0249L196.938 86.1041L196.145 83.1708L197.215 82.814L198.801 84.8357L200.188 87.1348H202.884L204.073 89.3546L202.765 90.0285L202.289 90.9402L205.183 92.4862L207.442 95.4988L209.186 97.7187L211.129 99.5025L211.922 101.286L211.842 103.823Z" fill="#363333" stroke="#201D1D" stroke-width="0.24998" stroke-linejoin="round"/>
<path d="M238.837 81.9816L238.282 84.0825L236.697 81.9023L236.102 80.0392L236.855 77.5419L238.163 75.5996L239.352 76.3527L239.313 77.8987L238.837 81.9816Z" fill="#363333" stroke="#201D1D" stroke-width="0.24998" stroke-linejoin="round"/>
<path d="M57.9994 34.3343L60.1796 34.2154L62.3995 35.4839L62.9148 36.3559L62.9544 37.5848L64.6193 38.219L65.5707 38.9325L64.2625 39.6857L65.4121 42.5794L65.1346 43.3722L66.6409 45.3939L65.6896 45.8299L64.8571 45.1957L62.3598 44.8389L61.5274 45.2353L59.1886 45.6317L58.0391 45.5921L55.7796 46.5434H54.0354L52.8462 46.0677L50.6264 46.7813L49.8732 46.3056L49.9525 47.693L49.4768 48.2479L48.9615 48.8029L48.0498 47.6533L48.7237 46.702L47.4552 46.9398L45.6317 46.3452L44.3633 47.8119L41.1921 48.0894L39.329 46.7416L37.0695 46.6623L36.6731 47.693L35.2461 48.0101L33.1055 46.6623L30.8064 46.702L29.3001 44.165L27.6352 42.7776L28.428 40.7956L27.0009 39.5668L29.0226 37.1487L32.1938 37.0695L32.828 35.1271L36.792 35.4839L39.0119 33.8586L41.311 33.1451L44.6804 33.0658L48.5651 34.8496L51.6967 35.8406L53.9958 35.4442L55.8192 35.6821L57.9994 34.3343ZM26.3667 36.1577L26.8424 35.8803L27.2784 34.2947L26.2081 33.6208L28.1901 32.828L30.0136 33.1451L30.3703 34.1361L32.2731 34.9289L31.9956 35.5631L29.5379 35.6821L28.7451 36.4749L27.1991 37.8226L26.4063 36.6731L26.3667 36.1577Z" fill="#363333" stroke="#201D1D" stroke-width="0.24998" stroke-linejoin="round"/>
<path d="M154.8 124.198L152.898 124.793L151.748 122.771L151.193 119.124L151.986 115.002L153.611 116.389L154.721 118.173L155.95 120.829L155.712 123.485L154.8 124.198Z" fill="#363333" stroke="#201D1D" stroke-width="0.24998" stroke-linejoin="round"/>
<path d="M206.967 103.665L204.866 103.308L202.051 103.784L200.822 105.885L201.655 108.976L199.554 107.787L197.651 107.867L197.77 105.845H195.828L195.907 108.659L195.035 112.385L194.48 114.645L194.757 116.468L196.224 116.548L197.294 118.886L197.81 121.067L199.157 122.533L200.505 122.811L201.734 124.159L201.06 125.189L199.593 125.506L199.356 124.198L197.453 123.088L197.096 123.524L196.184 122.573L195.709 121.304L194.44 119.877L193.291 118.649L193.013 120.155L192.498 118.728L192.656 117.142L193.132 114.724L194.004 112.108L195.035 109.73L193.965 107.391L193.885 106.202L193.489 104.775L191.784 102.753L191.071 101.484L191.784 101.009L192.339 98.8286L191.19 97.1241L189.565 95.261L188.177 93.0411L189.049 92.5655L189.644 89.8303L191.19 89.7114L192.3 88.6015L193.489 88.0069L194.559 88.7997L194.916 90.3456L196.422 90.4645L196.264 93.1204L196.66 95.4195L198.761 93.9132L199.514 94.3493L200.783 94.27L201.1 93.3979L202.804 93.5565L204.786 95.6177L205.302 98.1547L207.403 100.375L207.561 102.515L206.967 103.665Z" fill="#363333" stroke="#201D1D" stroke-width="0.24998" stroke-linejoin="round"/>
<path d="M25.2964 90.1474L25.7325 100.256L23.8297 100.057L22.8387 101.96L22.3234 103.506L22.7991 104.101L22.0856 104.894L22.3631 105.964L21.8081 106.994L21.6099 107.946L22.3631 107.787L22.8784 108.778L22.918 110.245L23.7505 110.998V111.632L22.3234 112.068L21.2135 113.099L19.6279 115.874L17.5666 117.063L15.3864 116.904L14.7522 117.142L14.99 118.014L13.8405 118.926L12.8891 119.917L10.0747 120.868L9.51971 120.313L9.12331 120.234L8.72691 120.908L6.90348 121.106L7.22058 120.393L6.50708 118.649L6.18994 117.618L5.19894 117.182L3.85117 115.676L4.32688 114.486L5.35751 114.724L5.99174 114.566H7.26021L5.99174 112.267L6.07101 110.562L5.87281 108.897L4.96111 107.272L5.19894 106.043L3.73228 106.003V104.378L2.78091 103.427L3.69261 100.057L6.46741 97.679L6.54671 94.3493L7.26021 89.1961L7.73591 88.0861L6.78454 87.2141L6.74491 86.4213L5.87281 85.7474L5.23857 81.7834L7.41878 80.396L16.3378 85.2717L25.2964 90.1474Z" fill="#363333" stroke="#201D1D" stroke-width="0.24998" stroke-linejoin="round"/>
<path d="M95.4592 74.5293L95.9745 76.5509H94.8646V78.2158L95.3007 78.5725L94.3493 79.0879L94.4286 80.1185L93.9133 81.1491V82.1798L93.5169 82.7347L86.8177 81.4663L85.7474 78.85L85.6285 78.2951L85.9853 78.1365L86.1438 78.85L87.8087 78.4536L89.6321 78.5329L90.9799 78.6122L92.288 76.868L93.7547 75.2428L94.9439 73.6572L95.4592 74.5293Z" fill="#363333" stroke="#201D1D" stroke-width="0.24998" stroke-linejoin="round"/>
<path d="M129.867 44.7596L130.461 45.4732L129.312 45.7903L128.36 46.2263L126.022 46.5434L123.921 47.0588L122.969 48.1687L123.723 49.239L124.277 50.5074L123.485 51.5777L123.802 52.5687L123.445 53.4804L121.384 53.4012L122.613 55.066L121.384 55.7399L120.829 57.2462L121.265 58.7922L120.551 59.5057L119.719 59.2679L118.133 59.6246L118.054 60.2985H116.429L115.517 61.7652L115.834 63.9058L113.218 64.976L111.672 64.7382L111.315 65.2932L109.967 64.976L107.867 65.3724L104.061 64.0643L105.607 61.7652L105.171 60.14L103.466 59.7039L102.991 58.0787L101.921 56.057L102.555 54.6696L101.564 54.2732L101.762 52.4102L102 49.239L104.339 50.23L105.885 49.8732L106.043 48.7236L107.629 48.3669L108.659 47.5741L108.58 45.5524L110.245 45.0371L110.364 44.165L111.513 44.8389L112.148 44.9182H113.337L115.041 45.4732L115.755 45.7506L117.103 44.9578L117.935 45.4335L118.292 44.284L119.56 44.3236L119.798 43.9668L119.719 42.9362L120.393 42.0641L121.701 42.6191L121.661 43.4119L122.335 43.5308L122.692 45.6714L123.762 46.5038L124.357 45.9488L125.229 45.711L126.22 44.5614L127.726 44.7596H129.867Z" fill="#363333" stroke="#201D1D" stroke-width="0.24998" stroke-linejoin="round"/>
<path d="M66.6409 45.3939L68.504 48.4065L70.0103 49.1993L70.3671 50.666L69.4554 51.5381L69.2572 53.5201L71.0806 55.9381L73.8951 57.3651L75.2825 59.2679L75.2032 61.1309H75.8771L76.0753 62.4787L77.4627 63.8265L76.1545 63.7075L74.6879 63.4697L73.3797 65.9274L69.3365 65.7292L62.6769 60.6156L59.2679 58.8318L56.5724 58.1183L55.3435 55.0264L59.7039 52.3705L60.1003 49.3182L59.6247 47.4551L60.6949 46.8209L61.5274 45.2353L62.3598 44.8389L64.8571 45.1957L65.6896 45.8299L66.6409 45.3939Z" fill="#363333" stroke="#201D1D" stroke-width="0.24998" stroke-linejoin="round"/>
<path d="M68.8211 41.4299L69.5347 41.3506L71.6356 39.4875L72.3887 39.2893L73.1419 40.0425L72.6662 41.2713L74.2122 42.6191L74.7275 42.4605L75.7185 44.3632L77.8194 44.8785L79.5239 46.147L82.5762 46.5831L85.7474 45.9092L85.8267 45.3146L87.5709 44.8389L88.7601 43.3722L90.1871 43.4515L90.9799 42.9758L92.5259 43.2137L95.1421 44.5218L96.8466 44.7993L99.7403 47.0191L101.326 47.138L102 49.2389L101.762 52.4101L101.564 54.2732L102.555 54.6696L101.921 56.057L102.991 58.0787L103.467 59.7039L105.171 60.1399L105.607 61.7652L104.061 64.0643L105.33 65.4121L106.44 66.958L108.699 68.0679L109.095 70.2878L110.166 70.7238L110.522 71.8734L107.549 73.2211L107.113 76.1545L102.912 75.4013L100.454 74.8067L97.9565 74.4896L96.6484 71.3581L95.5385 70.922L93.9133 71.3581L91.8916 72.5869L89.1168 71.7545L86.6988 69.7725L84.5186 69.0589L82.7744 66.6409L80.7131 63.2715L79.6032 63.6679L78.1365 62.8355L77.4627 63.8265L76.0753 62.4787L75.8771 61.1309H75.2032L75.2825 59.2679L73.8951 57.3651L71.0806 55.9381L69.2572 53.5201L69.4554 51.5381L70.3671 50.666L70.0103 49.1993L68.504 48.4065L66.6409 45.3939L65.1346 43.3722L65.4121 42.5794L64.2625 39.6857L65.5707 38.9325L66.0463 39.9235L67.3148 41.0731L68.8211 41.4299Z" fill="#363333" stroke="#201D1D" stroke-width="0.24998" stroke-linejoin="round"/>
<path d="M69.5347 41.3506L68.8211 41.4299L67.7112 39.9632L67.6319 39.5668H66.7202L65.9671 38.8929L65.5707 38.9325L64.6193 38.219L62.9544 37.5848L62.9148 36.3559L62.3995 35.4839L65.1743 35.0875L65.7292 35.7217L66.6013 36.1577L66.3238 36.792L67.5923 37.6641L67.1563 38.4965L68.1869 39.1704L69.1779 39.5668L69.5347 41.3506Z" fill="#363333" stroke="#201D1D" stroke-width="0.24998" stroke-linejoin="round"/>
<path d="M12.9287 31.4406L13.0873 31.9163L13.6423 31.6784L14.1179 32.3523L14.6333 32.6298L14.8711 33.5415L14.6729 34.4136L15.0693 35.4839L15.981 36.0785L16.0207 36.7524L15.3468 37.1091L15.3071 37.9416L14.4351 39.1704L14.0783 39.0118L13.999 38.4569L12.7702 37.5848L12.4927 36.3956L12.5323 34.6514L12.7305 33.8983L12.3738 33.5019L12.1756 32.6694L12.9287 31.4406Z" fill="#363333" stroke="#201D1D" stroke-width="0.24998" stroke-linejoin="round"/>
<path d="M147.546 63.1526L146.436 64.3418L146.08 66.7202L148.379 67.6715L150.678 68.9004L153.77 70.3274L156.822 70.6842L158.328 71.9527L160.033 72.1905L162.768 72.7851L164.591 72.7455L164.631 71.7545L164.036 70.1292L163.957 69.0589L165.186 68.504L165.781 70.5256L165.939 71.0013L168.119 71.9923L169.388 71.5959L171.251 71.7545L173.035 71.6752L172.837 70.1292L171.806 69.2968L173.471 68.9797L175.017 67.0769L177.157 65.4913L179.1 66.0859L180.368 65.0157L181.795 66.6013L181.319 67.6715L183.738 68.0679L184.134 69.0193L183.46 69.495L184.015 71.0409L182.35 70.6049L179.892 72.3491L180.249 73.8157L179.456 75.9563L179.575 77.1851L178.941 79.2861L177.118 78.6915L177.474 81.3473L177.078 82.2194L177.474 83.2897L176.483 83.8843L174.739 79.841H174.145L174.026 81.5059L172.599 80.1581L173.074 78.7311L174.026 78.5725L174.66 76.432L173.312 75.9959L171.291 76.0356L169.15 75.6788L168.674 73.895L167.604 73.7761L165.662 72.6662L165.186 74.4103L167.009 75.7581L165.82 76.7095L165.463 77.6212L166.93 78.2951L166.811 79.841L167.842 81.7437L168.476 83.8447L168.278 84.796L166.772 84.7564L164.155 85.2717L164.512 87.1744L163.561 88.6807L160.588 90.4249L158.487 93.3979L156.981 95.0231L154.999 96.688L155.117 97.8376L154.087 98.4718L152.184 99.3835L151.153 99.5025L150.678 101.445L151.431 104.775L151.708 106.876L150.955 109.294L151.233 113.614L150.083 113.733L149.171 115.676L149.925 116.548L147.903 117.261L147.229 118.966L146.357 119.719L144.137 117.34L142.908 113.773L141.917 111.196L141.045 110.007L139.697 107.549L138.905 104.378L138.35 102.793L136.011 99.3043L134.624 94.3493L133.593 91.0988L133.276 88.0069L132.602 85.6285L129.55 87.1744L127.964 86.8573L124.753 83.7654L125.705 82.8537L124.951 81.8627L122.137 79.6825L123.405 77.9779H128.202L127.488 75.7977L126.101 74.5293L125.546 72.5473L123.96 71.4373L125.903 68.7418L128.479 68.94L130.263 66.2841L131.135 63.7075L132.681 61.1309L132.285 59.3075L133.791 57.8408L131.769 56.612L130.62 54.8678L129.312 52.648L130.105 51.5381L133.474 52.1723L135.733 51.7759L137.24 49.6353L140.292 52.648L140.609 54.7093L141.798 56.0174L142.036 57.3255L140.411 56.9687L141.679 59.7832L144.137 61.3688L147.546 63.1526Z" fill="#363333" stroke="#201D1D" stroke-width="0.24998" stroke-linejoin="round"/>
<path d="M68.8211 41.4299L67.3148 41.0731L66.0463 39.9235L65.5707 38.9325L65.9671 38.8929L66.7202 39.5668H67.6319L67.7112 39.9632L68.8211 41.4299ZM71.3185 34.6911L72.3095 33.6604L73.6969 34.9685L75.1239 36.792L76.1149 36.9109L76.8681 37.5848L75.2032 37.783L75.2428 39.765L75.0843 40.6371L74.4104 41.2317L74.7275 42.4605L74.2122 42.6191L72.6662 41.2713L73.1419 40.0425L72.3887 39.2893L71.6356 39.4875L69.5347 41.3506L69.1779 39.5668L68.1869 39.1704L67.1563 38.4965L67.5923 37.6641L66.3238 36.792L66.6013 36.1577L65.7292 35.7217L65.1743 35.0875L65.6103 34.6514L67.2752 35.4046L68.4247 35.5235L68.6626 35.246L67.3545 33.8586L67.8301 33.5415L68.4247 33.6208L70.1293 35.1271L71.0806 35.3253L71.3185 34.6911Z" fill="#363333" stroke="#201D1D" stroke-width="0.24998" stroke-linejoin="round"/>
<path d="M40.3596 10.2728L41.2713 11.3431L41.311 11.8188L43.9669 12.6909L45.3939 12.2945L46.8209 13.444L47.9705 13.4044L51.0228 14.1972L51.1813 14.9504L50.666 16.2188L51.3795 17.6062L51.2606 18.4387L49.3579 18.5972L48.4858 19.3108L48.6444 20.381L47.0984 20.5792L45.9092 21.4117L44.0858 21.5306L42.5002 22.482L42.8966 24.0279L44.0065 24.6225L46.0281 24.464L45.7903 25.3757L43.6497 25.8117L41.1524 27.2388L39.9236 26.7234L40.2011 25.5739L37.8623 24.8207L38.1398 24.345L39.9632 23.5126L39.2893 22.9576L36.0785 22.3234L35.7614 21.372L33.9776 21.6892L33.4623 23.0766L32.1541 24.9L31.2028 24.464L30.2911 24.9L29.3397 24.4243L29.8154 24.1468L30.0532 23.3144L30.4893 22.482L30.2514 22.0459L30.6478 21.8477L30.8857 22.2045L32.0749 22.2838L32.5902 22.0856L32.1938 21.8477L32.2731 21.4513L31.4803 20.8171L31.0442 19.7864L30.2514 19.39L30.2911 18.5576L29.2604 17.8837L28.4676 17.7648L26.882 17.0116L25.6135 17.2495L25.1775 17.6062H24.3451L23.9487 18.2008L22.5216 18.4387L21.8874 18.8351L20.8964 18.2008H19.6279L18.3594 17.9234L17.5666 18.4783L17.3684 17.8044L16.1792 17.1306L16.4567 16.1396L16.9324 15.4657L17.3684 15.6242L16.7342 14.5143L18.2405 12.453L19.1522 12.1756L19.2711 11.5017L18.0027 9.36111L18.9144 9.24219L19.8657 8.60795L21.3721 8.52867L23.3144 8.72687L25.5739 9.32147L27.1199 9.36111L27.873 9.71787L28.5469 9.28184L29.1415 9.87644L30.846 9.75751L31.6785 9.99535L31.5595 8.76651L32.0749 8.21155L33.7001 8.09264L34.4136 8.17191L34.81 7.61695L35.4046 7.73587L37.347 7.49804L38.8533 8.88544L38.4965 9.40075L38.8137 10.1539L40.3596 10.2728Z" fill="#363333" stroke="#201D1D" stroke-width="0.24998" stroke-linejoin="round"/>
<path d="M85.1132 77.3041L84.5186 77.5023L83.8051 76.9869L83.4879 75.1239L83.924 73.8157L84.5186 73.5383L85.2321 74.3311L85.4303 75.7977L85.1132 77.3041Z" fill="#363333" stroke="#201D1D" stroke-width="0.24998" stroke-linejoin="round"/>
</svg>
